# xmcd
#
# Track frame offsets: 
#        150
#        15427
#        27879
#        46222
#        62097
#        77930
#        91403
#        104072
#        117969
#        129907
#        139713
#        150370
#        162420
#        171752
#        184129
#        197847
#        210970
#        222912
#        234495
#        244772
#        257690
#        270760
#        282578
#        297200
#        312337
#
# Disc length: 4287 seconds
#
# Revision: 0
# Processed by: cddbd v1.5PL3 Copyright (c) Steve Scherf et al.
# Submitted via: ExactAudioCopy v0.95a5
#
DISCID=5d10bd19
DTITLE=Various Artist - Country Music - Vol. II
DYEAR=2000
DGENRE=Country
TTITLE0=Charlie B. - She's not crying anymore
TTITLE1=California Group - Little bitty
TTITLE2=Charlie B. - Learning to live again
TTITLE3=Charlie B. - Forever and ever, Amen
TTITLE4=California Group - Ramblin' fever
TTITLE5=California Group - Big four poster bed
TTITLE6=Charlie B. - Early morning rain
TTITLE7=California Group - Somebody's knockin'
TTITLE8=California Group - Red necks with socks in blue ribbon beer
TTITLE9=Charlie B. - Never be anyoneelse but you
TTITLE10=Charlie B. - Too gone too long
TTITLE11=California Group - Coalminer's daughter
TTITLE12=California Group - Country sunshine
TTITLE13=Charlie B. - Every body's talkin
TTITLE14=Charlie B. - Drivin my life away
TTITLE15=California Group - The door is always open
TTITLE16=California Group - Texas "When I die"
TTITLE17=Charlie B. - Running behind
TTITLE18=Charlie B. - Hello Mary Lou
TTITLE19=California Group - I will always love you
TTITLE20=Charlie B. - Jambalaya
TTITLE21=Charlie B. - I love you rainy night
TTITLE22=California Group - I was almost like a song
TTITLE23=Charlie B. - Achy breaky heart
TTITLE24=Charlie B. - Wake up little Susie
EXTD=
EXTT0=
EXTT1=
EXTT2=
EXTT3=
EXTT4=
EXTT5=
EXTT6=
EXTT7=
EXTT8=
EXTT9=
EXTT10=
EXTT11=
EXTT12=
EXTT13=
EXTT14=
EXTT15=
EXTT16=
EXTT17=
EXTT18=
EXTT19=
EXTT20=
EXTT21=
EXTT22=
EXTT23=
EXTT24=
PLAYORDER=
